<svg width="396" height="804" viewBox="0 0 396 804" fill="none" xmlns="http://www.w3.org/2000/svg">
<path d="M120.5 114C131.546 114 140.5 105.046 140.5 94V20C140.5 8.9543 149.454 0 160.5 0H242H376C387.046 0 396 8.95431 396 20V784C396 795.046 387.046 804 376 804H20C8.9543 804 0 795.046 0 784V134C0 122.954 8.9543 114 20 114H120.5Z" fill="white"/>
<rect x="112" y="176" width="47" height="115" rx="10" transform="rotate(-90 112 176)" fill="#FFBFBF"/>
<rect x="244" y="789" width="35" height="137" rx="10" transform="rotate(-90 244 789)" fill="#CFFFBF" fill-opacity="0.77"/>
<rect x="15" y="311" width="81" height="232" rx="10" fill="#FFEDBF"/>
<rect x="15" y="617" width="81" height="172" rx="10" fill="#FFBFBF"/>
<rect x="15" y="129" width="81" height="172" rx="10" fill="#CFFFBF" fill-opacity="0.77"/>
<rect x="244" y="180" width="57" height="180" rx="10" fill="#FFEDBF"/>
<rect x="324" y="180" width="57" height="180" rx="10" fill="#CFFFBF" fill-opacity="0.77"/>
<rect x="244" y="10" width="57" height="160" rx="10" fill="#CFFFBF" fill-opacity="0.77"/>
<rect x="324" y="10" width="57" height="160" rx="10" fill="#FFEDBF"/>
<rect x="244" y="560" width="57" height="180" rx="10" fill="#FFEDBF"/>
<rect x="324" y="560" width="57" height="180" rx="10" fill="#FFEDBF"/>
<rect x="244" y="370" width="137" height="180" rx="10" fill="#CFFFBF" fill-opacity="0.77"/>
<rect x="114" y="189" width="112" height="101" rx="10" fill="#CFFFBF" fill-opacity="0.77"/>
<rect x="154" y="10" width="73" height="100" rx="10" fill="#FFBFBF"/>
<rect x="114" y="316" width="112" height="101" rx="10" fill="#FFBFBF"/>
<rect x="114" y="443" width="112" height="100" rx="10" fill="#FFEDBF"/>
<path d="M148.996 249.227V247.885C148.996 246.866 149.212 245.929 149.642 245.076C150.082 244.214 150.715 243.527 151.544 243.013C152.381 242.491 153.4 242.23 154.602 242.23C155.82 242.23 156.843 242.487 157.672 243C158.508 243.514 159.138 244.202 159.561 245.064C159.992 245.917 160.207 246.857 160.207 247.885V249.227C160.207 250.246 159.992 251.187 159.561 252.049C159.13 252.902 158.496 253.586 157.659 254.099C156.822 254.621 155.803 254.882 154.602 254.882C153.384 254.882 152.36 254.621 151.532 254.099C150.703 253.586 150.073 252.902 149.642 252.049C149.212 251.187 148.996 250.246 148.996 249.227ZM152.613 247.885V249.227C152.613 249.816 152.754 250.371 153.036 250.893C153.326 251.415 153.848 251.676 154.602 251.676C155.356 251.676 155.869 251.419 156.143 250.905C156.424 250.391 156.565 249.832 156.565 249.227V247.885C156.565 247.28 156.433 246.717 156.168 246.195C155.902 245.673 155.38 245.412 154.602 245.412C153.856 245.412 153.338 245.673 153.048 246.195C152.758 246.717 152.613 247.28 152.613 247.885ZM135.933 234.661V233.318C135.933 232.291 136.153 231.35 136.592 230.497C137.031 229.635 137.665 228.947 138.494 228.434C139.33 227.92 140.341 227.663 141.526 227.663C142.753 227.663 143.78 227.92 144.609 228.434C145.437 228.947 146.067 229.635 146.498 230.497C146.929 231.35 147.144 232.291 147.144 233.318V234.661C147.144 235.688 146.925 236.628 146.485 237.482C146.055 238.335 145.421 239.019 144.584 239.533C143.755 240.038 142.736 240.291 141.526 240.291C140.317 240.291 139.293 240.034 138.456 239.52C137.628 238.998 136.998 238.315 136.567 237.469C136.145 236.616 135.933 235.68 135.933 234.661ZM139.575 233.318V234.661C139.575 235.265 139.716 235.825 139.998 236.338C140.288 236.852 140.797 237.109 141.526 237.109C142.289 237.109 142.806 236.852 143.08 236.338C143.362 235.825 143.502 235.265 143.502 234.661V233.318C143.502 232.713 143.37 232.15 143.105 231.628C142.84 231.106 142.313 230.845 141.526 230.845C140.789 230.845 140.279 231.11 139.998 231.64C139.716 232.171 139.575 232.73 139.575 233.318ZM137.574 254L155.074 228.545H158.33L140.83 254H137.574ZM166.148 254L176.7 233.119V232.945H164.408V228.545H182.268V233.007L171.704 254H166.148ZM194.825 228.197C196.134 228.197 197.393 228.417 198.603 228.856C199.821 229.295 200.907 229.996 201.86 230.957C202.821 231.918 203.579 233.194 204.134 234.785C204.698 236.367 204.983 238.31 204.992 240.614C204.992 242.777 204.747 244.707 204.258 246.406C203.778 248.096 203.086 249.534 202.183 250.719C201.28 251.904 200.19 252.807 198.914 253.428C197.638 254.041 196.213 254.348 194.638 254.348C192.94 254.348 191.44 254.021 190.139 253.366C188.838 252.703 187.79 251.804 186.995 250.669C186.207 249.526 185.731 248.241 185.565 246.816H190.872C191.08 247.744 191.515 248.465 192.177 248.979C192.84 249.484 193.661 249.737 194.638 249.737C196.296 249.737 197.555 249.016 198.417 247.574C199.279 246.124 199.714 244.14 199.722 241.621H199.548C199.167 242.366 198.653 243.009 198.007 243.547C197.36 244.078 196.619 244.488 195.782 244.778C194.953 245.068 194.071 245.213 193.134 245.213C191.635 245.213 190.297 244.861 189.12 244.156C187.943 243.452 187.015 242.482 186.336 241.248C185.656 240.013 185.317 238.605 185.317 237.022C185.308 235.315 185.702 233.795 186.497 232.461C187.293 231.127 188.403 230.083 189.828 229.328C191.262 228.566 192.927 228.189 194.825 228.197ZM194.862 232.423C194.025 232.423 193.28 232.622 192.625 233.02C191.979 233.418 191.465 233.952 191.084 234.623C190.711 235.294 190.529 236.044 190.537 236.873C190.537 237.71 190.719 238.464 191.084 239.135C191.457 239.798 191.962 240.328 192.6 240.726C193.246 241.115 193.984 241.31 194.812 241.31C195.434 241.31 196.01 241.194 196.54 240.962C197.07 240.73 197.53 240.411 197.92 240.005C198.317 239.591 198.628 239.114 198.852 238.576C199.076 238.037 199.187 237.465 199.187 236.86C199.179 236.057 198.989 235.319 198.616 234.648C198.243 233.977 197.729 233.438 197.074 233.032C196.42 232.626 195.682 232.423 194.862 232.423Z" fill="#5B5B5B"/>
<path d="M147.996 376.227V374.885C147.996 373.866 148.212 372.929 148.642 372.076C149.082 371.214 149.715 370.527 150.544 370.013C151.381 369.491 152.4 369.23 153.602 369.23C154.82 369.23 155.843 369.487 156.672 370C157.508 370.514 158.138 371.202 158.561 372.064C158.992 372.917 159.207 373.857 159.207 374.885V376.227C159.207 377.246 158.992 378.187 158.561 379.049C158.13 379.902 157.496 380.586 156.659 381.099C155.822 381.621 154.803 381.882 153.602 381.882C152.384 381.882 151.36 381.621 150.532 381.099C149.703 380.586 149.073 379.902 148.642 379.049C148.212 378.187 147.996 377.246 147.996 376.227ZM151.613 374.885V376.227C151.613 376.816 151.754 377.371 152.036 377.893C152.326 378.415 152.848 378.676 153.602 378.676C154.356 378.676 154.869 378.419 155.143 377.905C155.424 377.391 155.565 376.832 155.565 376.227V374.885C155.565 374.28 155.433 373.717 155.168 373.195C154.902 372.673 154.38 372.412 153.602 372.412C152.856 372.412 152.338 372.673 152.048 373.195C151.758 373.717 151.613 374.28 151.613 374.885ZM134.933 361.661V360.318C134.933 359.291 135.153 358.35 135.592 357.497C136.031 356.635 136.665 355.947 137.494 355.434C138.33 354.92 139.341 354.663 140.526 354.663C141.753 354.663 142.78 354.92 143.609 355.434C144.437 355.947 145.067 356.635 145.498 357.497C145.929 358.35 146.144 359.291 146.144 360.318V361.661C146.144 362.688 145.925 363.628 145.485 364.482C145.055 365.335 144.421 366.019 143.584 366.533C142.755 367.038 141.736 367.291 140.526 367.291C139.317 367.291 138.293 367.034 137.456 366.52C136.628 365.998 135.998 365.315 135.567 364.469C135.145 363.616 134.933 362.68 134.933 361.661ZM138.575 360.318V361.661C138.575 362.265 138.716 362.825 138.998 363.338C139.288 363.852 139.797 364.109 140.526 364.109C141.289 364.109 141.806 363.852 142.08 363.338C142.362 362.825 142.502 362.265 142.502 361.661V360.318C142.502 359.713 142.37 359.15 142.105 358.628C141.84 358.106 141.313 357.845 140.526 357.845C139.789 357.845 139.279 358.11 138.998 358.64C138.716 359.171 138.575 359.73 138.575 360.318ZM136.574 381L154.074 355.545H157.33L139.83 381H136.574ZM164.141 381V377.122L173.202 368.733C173.973 367.987 174.619 367.316 175.141 366.719C175.671 366.123 176.073 365.538 176.347 364.967C176.62 364.387 176.757 363.761 176.757 363.09C176.757 362.344 176.587 361.702 176.247 361.163C175.907 360.616 175.443 360.198 174.855 359.908C174.267 359.61 173.6 359.461 172.854 359.461C172.075 359.461 171.396 359.618 170.816 359.933C170.236 360.248 169.788 360.699 169.473 361.288C169.158 361.876 169.001 362.576 169.001 363.388H163.893C163.893 361.723 164.27 360.277 165.024 359.05C165.778 357.824 166.834 356.875 168.193 356.204C169.552 355.533 171.118 355.197 172.891 355.197C174.714 355.197 176.301 355.521 177.652 356.167C179.011 356.805 180.067 357.692 180.821 358.827C181.575 359.962 181.952 361.263 181.952 362.729C181.952 363.691 181.761 364.639 181.38 365.576C181.007 366.512 180.34 367.552 179.379 368.695C178.418 369.83 177.063 371.194 175.315 372.784L171.599 376.426V376.6H182.288V381H164.141ZM185.255 376.526V372.287L195.882 355.545H199.536V361.412H197.373L190.674 372.014V372.213H205.775V376.526H185.255ZM197.473 381V375.233L197.572 373.356V355.545H202.618V381H197.473Z" fill="#5B5B5B"/>
<path d="M154.426 158.591V157.632C154.426 156.904 154.58 156.235 154.887 155.626C155.201 155.01 155.654 154.519 156.246 154.152C156.844 153.779 157.571 153.593 158.43 153.593C159.3 153.593 160.031 153.776 160.623 154.143C161.22 154.51 161.67 155.001 161.972 155.617C162.28 156.226 162.434 156.898 162.434 157.632V158.591C162.434 159.319 162.28 159.991 161.972 160.606C161.664 161.216 161.211 161.704 160.614 162.071C160.016 162.444 159.288 162.63 158.43 162.63C157.56 162.63 156.829 162.444 156.237 162.071C155.645 161.704 155.195 161.216 154.887 160.606C154.58 159.991 154.426 159.319 154.426 158.591ZM157.009 157.632V158.591C157.009 159.011 157.11 159.408 157.311 159.781C157.518 160.153 157.891 160.34 158.43 160.34C158.968 160.34 159.335 160.156 159.531 159.789C159.732 159.422 159.832 159.023 159.832 158.591V157.632C159.832 157.2 159.738 156.798 159.548 156.425C159.359 156.052 158.986 155.865 158.43 155.865C157.897 155.865 157.527 156.052 157.32 156.425C157.113 156.798 157.009 157.2 157.009 157.632ZM145.095 148.186V147.227C145.095 146.493 145.252 145.822 145.566 145.212C145.879 144.596 146.332 144.105 146.924 143.738C147.522 143.371 148.244 143.188 149.09 143.188C149.966 143.188 150.7 143.371 151.292 143.738C151.884 144.105 152.334 144.596 152.641 145.212C152.949 145.822 153.103 146.493 153.103 147.227V148.186C153.103 148.92 152.946 149.592 152.632 150.201C152.325 150.811 151.872 151.299 151.274 151.666C150.682 152.027 149.954 152.208 149.09 152.208C148.226 152.208 147.495 152.024 146.897 151.657C146.306 151.284 145.856 150.796 145.548 150.192C145.246 149.583 145.095 148.914 145.095 148.186ZM147.696 147.227V148.186C147.696 148.618 147.797 149.018 147.998 149.385C148.205 149.752 148.569 149.935 149.09 149.935C149.635 149.935 150.005 149.752 150.2 149.385C150.401 149.018 150.502 148.618 150.502 148.186V147.227C150.502 146.795 150.407 146.393 150.218 146.02C150.028 145.647 149.652 145.461 149.09 145.461C148.563 145.461 148.199 145.65 147.998 146.029C147.797 146.408 147.696 146.807 147.696 147.227ZM146.267 162L158.767 143.818H161.093L148.593 162H146.267ZM165.958 162V159.23L172.43 153.238C172.98 152.705 173.442 152.225 173.815 151.799C174.194 151.373 174.481 150.956 174.676 150.548C174.871 150.133 174.969 149.686 174.969 149.207C174.969 148.674 174.848 148.216 174.605 147.831C174.362 147.44 174.031 147.141 173.611 146.934C173.191 146.721 172.714 146.615 172.181 146.615C171.625 146.615 171.14 146.727 170.725 146.952C170.311 147.177 169.992 147.5 169.767 147.92C169.542 148.34 169.429 148.84 169.429 149.42H165.781C165.781 148.23 166.05 147.198 166.588 146.322C167.127 145.446 167.882 144.768 168.852 144.289C169.823 143.809 170.942 143.57 172.208 143.57C173.51 143.57 174.644 143.8 175.608 144.262C176.579 144.718 177.334 145.351 177.872 146.162C178.411 146.973 178.68 147.902 178.68 148.95C178.68 149.636 178.544 150.314 178.272 150.983C178.005 151.651 177.529 152.394 176.842 153.211C176.156 154.022 175.188 154.995 173.939 156.132L171.285 158.733V158.857H178.92V162H165.958ZM188.346 162.249C187.091 162.249 185.972 162.018 184.99 161.556C184.013 161.094 183.238 160.458 182.664 159.647C182.09 158.837 181.791 157.907 181.767 156.86H185.496C185.537 157.564 185.833 158.135 186.384 158.573C186.934 159.011 187.588 159.23 188.346 159.23C188.949 159.23 189.482 159.097 189.944 158.831C190.411 158.558 190.775 158.183 191.036 157.703C191.302 157.218 191.435 156.661 191.435 156.034C191.435 155.395 191.299 154.833 191.027 154.347C190.761 153.862 190.391 153.483 189.917 153.211C189.444 152.939 188.902 152.8 188.293 152.794C187.76 152.794 187.242 152.903 186.739 153.122C186.242 153.341 185.854 153.64 185.576 154.019L182.158 153.406L183.019 143.818H194.134V146.961H186.188L185.718 151.515H185.824C186.144 151.065 186.626 150.693 187.272 150.397C187.917 150.101 188.639 149.953 189.438 149.953C190.533 149.953 191.509 150.21 192.367 150.725C193.226 151.24 193.903 151.947 194.4 152.847C194.898 153.741 195.143 154.77 195.137 155.936C195.143 157.162 194.859 158.251 194.285 159.203C193.717 160.15 192.921 160.896 191.897 161.441C190.879 161.979 189.695 162.249 188.346 162.249Z" fill="#5B5B5B"/>
<path d="M296.426 777.591V776.632C296.426 775.904 296.58 775.235 296.887 774.626C297.201 774.01 297.654 773.519 298.246 773.152C298.844 772.779 299.571 772.593 300.43 772.593C301.3 772.593 302.031 772.776 302.623 773.143C303.22 773.51 303.67 774.001 303.972 774.617C304.28 775.226 304.434 775.898 304.434 776.632V777.591C304.434 778.319 304.28 778.991 303.972 779.606C303.664 780.216 303.211 780.704 302.614 781.071C302.016 781.444 301.288 781.63 300.43 781.63C299.56 781.63 298.829 781.444 298.237 781.071C297.645 780.704 297.195 780.216 296.887 779.606C296.58 778.991 296.426 778.319 296.426 777.591ZM299.009 776.632V777.591C299.009 778.011 299.11 778.408 299.311 778.781C299.518 779.153 299.891 779.34 300.43 779.34C300.968 779.34 301.335 779.156 301.531 778.789C301.732 778.422 301.832 778.023 301.832 777.591V776.632C301.832 776.2 301.738 775.798 301.548 775.425C301.359 775.052 300.986 774.865 300.43 774.865C299.897 774.865 299.527 775.052 299.32 775.425C299.113 775.798 299.009 776.2 299.009 776.632ZM287.095 767.186V766.227C287.095 765.493 287.252 764.822 287.566 764.212C287.879 763.596 288.332 763.105 288.924 762.738C289.522 762.371 290.244 762.188 291.09 762.188C291.966 762.188 292.7 762.371 293.292 762.738C293.884 763.105 294.334 763.596 294.641 764.212C294.949 764.822 295.103 765.493 295.103 766.227V767.186C295.103 767.92 294.946 768.592 294.632 769.201C294.325 769.811 293.872 770.299 293.274 770.666C292.682 771.027 291.954 771.208 291.09 771.208C290.226 771.208 289.495 771.024 288.897 770.657C288.306 770.284 287.856 769.796 287.548 769.192C287.246 768.583 287.095 767.914 287.095 767.186ZM289.696 766.227V767.186C289.696 767.618 289.797 768.018 289.998 768.385C290.205 768.752 290.569 768.935 291.09 768.935C291.635 768.935 292.005 768.752 292.2 768.385C292.401 768.018 292.502 767.618 292.502 767.186V766.227C292.502 765.795 292.407 765.393 292.218 765.02C292.028 764.647 291.652 764.461 291.09 764.461C290.563 764.461 290.199 764.65 289.998 765.029C289.797 765.408 289.696 765.807 289.696 766.227ZM288.267 781L300.767 762.818H303.093L290.593 781H288.267ZM308.677 781L316.214 766.085V765.961H307.434V762.818H320.192V766.005L312.646 781H308.677ZM329.565 781.4C328.038 781.394 326.724 781.018 325.623 780.272C324.528 779.526 323.684 778.446 323.093 777.032C322.507 775.617 322.217 773.915 322.223 771.927C322.223 769.944 322.516 768.254 323.101 766.858C323.693 765.461 324.537 764.398 325.632 763.67C326.733 762.937 328.043 762.57 329.565 762.57C331.086 762.57 332.394 762.937 333.489 763.67C334.589 764.404 335.436 765.47 336.028 766.866C336.619 768.257 336.912 769.944 336.907 771.927C336.907 773.921 336.611 775.626 336.019 777.04C335.433 778.455 334.592 779.535 333.497 780.281C332.402 781.027 331.092 781.4 329.565 781.4ZM329.565 778.212C330.606 778.212 331.438 777.689 332.059 776.641C332.681 775.593 332.988 774.022 332.983 771.927C332.983 770.548 332.84 769.4 332.556 768.482C332.278 767.565 331.882 766.875 331.367 766.414C330.858 765.952 330.257 765.721 329.565 765.721C328.529 765.721 327.7 766.239 327.079 767.275C326.457 768.311 326.144 769.861 326.138 771.927C326.138 773.324 326.277 774.49 326.555 775.425C326.839 776.354 327.239 777.052 327.753 777.52C328.268 777.982 328.872 778.212 329.565 778.212Z" fill="#5B5B5B"/>
<path d="M56.957 204.227V202.885C56.957 201.866 57.1725 200.929 57.6033 200.076C58.0425 199.214 58.6764 198.527 59.505 198.013C60.3419 197.491 61.361 197.23 62.5625 197.23C63.7805 197.23 64.8039 197.487 65.6325 198C66.4693 198.514 67.0991 199.202 67.5217 200.064C67.9525 200.917 68.168 201.857 68.168 202.885V204.227C68.168 205.246 67.9525 206.187 67.5217 207.049C67.0908 207.902 66.4569 208.586 65.62 209.099C64.7831 209.621 63.764 209.882 62.5625 209.882C61.3445 209.882 60.3211 209.621 59.4925 209.099C58.6639 208.586 58.0342 207.902 57.6033 207.049C57.1725 206.187 56.957 205.246 56.957 204.227ZM60.5739 202.885V204.227C60.5739 204.816 60.7147 205.371 60.9964 205.893C61.2865 206.415 61.8085 206.676 62.5625 206.676C63.3165 206.676 63.8303 206.419 64.1037 205.905C64.3854 205.391 64.5263 204.832 64.5263 204.227V202.885C64.5263 202.28 64.3937 201.717 64.1286 201.195C63.8634 200.673 63.3414 200.412 62.5625 200.412C61.8168 200.412 61.2989 200.673 61.0089 201.195C60.7189 201.717 60.5739 202.28 60.5739 202.885ZM43.8942 189.661V188.318C43.8942 187.291 44.1138 186.35 44.5529 185.497C44.9921 184.635 45.6259 183.947 46.4545 183.434C47.2914 182.92 48.3023 182.663 49.4872 182.663C50.7135 182.663 51.741 182.92 52.5696 183.434C53.3982 183.947 54.0279 184.635 54.4588 185.497C54.8897 186.35 55.1051 187.291 55.1051 188.318V189.661C55.1051 190.688 54.8855 191.628 54.4464 192.482C54.0155 193.335 53.3816 194.019 52.5447 194.533C51.7161 195.038 50.697 195.291 49.4872 195.291C48.2775 195.291 47.2541 195.034 46.4173 194.52C45.5887 193.998 44.9589 193.315 44.5281 192.469C44.1055 191.616 43.8942 190.68 43.8942 189.661ZM47.5359 188.318V189.661C47.5359 190.265 47.6767 190.825 47.9585 191.338C48.2485 191.852 48.758 192.109 49.4872 192.109C50.2495 192.109 50.7674 191.852 51.0408 191.338C51.3226 190.825 51.4634 190.265 51.4634 189.661V188.318C51.4634 187.713 51.3308 187.15 51.0657 186.628C50.8005 186.106 50.2744 185.845 49.4872 185.845C48.7498 185.845 48.2402 186.11 47.9585 186.64C47.6767 187.171 47.5359 187.73 47.5359 188.318ZM45.5348 209L63.0348 183.545H66.2912L48.7912 209H45.5348ZM44.1676 225.197C45.4768 225.197 46.7363 225.417 47.946 225.856C49.1641 226.295 50.2495 226.996 51.2024 227.957C52.1636 228.918 52.9218 230.194 53.4769 231.785C54.0404 233.367 54.3262 235.31 54.3345 237.614C54.3345 239.777 54.0901 241.707 53.6012 243.406C53.1206 245.096 52.4287 246.534 51.5256 247.719C50.6224 248.904 49.5328 249.807 48.2567 250.428C46.9807 251.041 45.5555 251.348 43.9812 251.348C42.2826 251.348 40.7828 251.021 39.4819 250.366C38.181 249.703 37.1328 248.804 36.3374 247.669C35.5502 246.526 35.0737 245.241 34.908 243.816H40.2152C40.4223 244.744 40.8574 245.465 41.5202 245.979C42.1831 246.484 43.0034 246.737 43.9812 246.737C45.6384 246.737 46.8978 246.016 47.7596 244.574C48.6213 243.124 49.0563 241.14 49.0646 238.621H48.8906C48.5095 239.366 47.9957 240.009 47.3494 240.547C46.7031 241.078 45.9615 241.488 45.1246 241.778C44.296 242.068 43.4136 242.213 42.4773 242.213C40.9775 242.213 39.6393 241.861 38.4627 241.156C37.2861 240.452 36.3581 239.482 35.6786 238.248C34.9992 237.013 34.6594 235.605 34.6594 234.022C34.6512 232.315 35.0447 230.795 35.8402 229.461C36.6357 228.127 37.746 227.083 39.1712 226.328C40.6046 225.566 42.2701 225.189 44.1676 225.197ZM44.2049 229.423C43.368 229.423 42.6223 229.622 41.9677 230.02C41.3214 230.418 40.8076 230.952 40.4265 231.623C40.0536 232.294 39.8713 233.044 39.8796 233.873C39.8796 234.71 40.0619 235.464 40.4265 236.135C40.7994 236.798 41.3048 237.328 41.9428 237.726C42.5891 238.115 43.3266 238.31 44.1552 238.31C44.7766 238.31 45.3525 238.194 45.8828 237.962C46.4131 237.73 46.873 237.411 47.2624 237.005C47.6602 236.591 47.9709 236.114 48.1946 235.576C48.4183 235.037 48.5302 234.465 48.5302 233.86C48.5219 233.057 48.3313 232.319 47.9585 231.648C47.5856 230.977 47.0719 230.438 46.4173 230.032C45.7627 229.626 45.0252 229.423 44.2049 229.423ZM67.2731 225.197C68.5823 225.197 69.8417 225.417 71.0515 225.856C72.2695 226.295 73.355 226.996 74.3079 227.957C75.2691 228.918 76.0272 230.194 76.5824 231.785C77.1458 233.367 77.4317 235.31 77.44 237.614C77.44 239.777 77.1956 241.707 76.7067 243.406C76.2261 245.096 75.5342 246.534 74.631 247.719C73.7279 248.904 72.6383 249.807 71.3622 250.428C70.0862 251.041 68.661 251.348 67.0866 251.348C65.388 251.348 63.8883 251.021 62.5874 250.366C61.2865 249.703 60.2383 248.804 59.4428 247.669C58.6557 246.526 58.1792 245.241 58.0135 243.816H63.3207C63.5278 244.744 63.9628 245.465 64.6257 245.979C65.2886 246.484 66.1089 246.737 67.0866 246.737C68.7438 246.737 70.0033 246.016 70.8651 244.574C71.7268 243.124 72.1618 241.14 72.1701 238.621H71.9961C71.6149 239.366 71.1012 240.009 70.4549 240.547C69.8086 241.078 69.067 241.488 68.2301 241.778C67.4015 242.068 66.5191 242.213 65.5827 242.213C64.083 242.213 62.7448 241.861 61.5682 241.156C60.3916 240.452 59.4635 239.482 58.7841 238.248C58.1046 237.013 57.7649 235.605 57.7649 234.022C57.7566 232.315 58.1502 230.795 58.9457 229.461C59.7411 228.127 60.8514 227.083 62.2766 226.328C63.7101 225.566 65.3756 225.189 67.2731 225.197ZM67.3104 229.423C66.4735 229.423 65.7277 229.622 65.0732 230.02C64.4268 230.418 63.9131 230.952 63.532 231.623C63.1591 232.294 62.9768 233.044 62.9851 233.873C62.9851 234.71 63.1674 235.464 63.532 236.135C63.9048 236.798 64.4103 237.328 65.0483 237.726C65.6946 238.115 66.4321 238.31 67.2607 238.31C67.8821 238.31 68.458 238.194 68.9883 237.962C69.5186 237.73 69.9785 237.411 70.3679 237.005C70.7656 236.591 71.0764 236.114 71.3001 235.576C71.5238 235.037 71.6357 234.465 71.6357 233.86C71.6274 233.057 71.4368 232.319 71.0639 231.648C70.6911 230.977 70.1773 230.438 69.5227 230.032C68.8681 229.626 68.1307 229.423 67.3104 229.423Z" fill="#5B5B5B"/>
<path d="M273.184 260.591V259.632C273.184 258.904 273.337 258.235 273.645 257.626C273.959 257.01 274.412 256.519 275.004 256.152C275.601 255.779 276.329 255.593 277.188 255.593C278.058 255.593 278.788 255.776 279.38 256.143C279.978 256.51 280.428 257.001 280.73 257.617C281.038 258.226 281.191 258.898 281.191 259.632V260.591C281.191 261.319 281.038 261.991 280.73 262.606C280.422 263.216 279.969 263.704 279.371 264.071C278.774 264.444 278.046 264.63 277.188 264.63C276.317 264.63 275.587 264.444 274.995 264.071C274.403 263.704 273.953 263.216 273.645 262.606C273.337 261.991 273.184 261.319 273.184 260.591ZM275.767 259.632V260.591C275.767 261.011 275.868 261.408 276.069 261.781C276.276 262.153 276.649 262.34 277.188 262.34C277.726 262.34 278.093 262.156 278.288 261.789C278.49 261.422 278.59 261.023 278.59 260.591V259.632C278.59 259.2 278.496 258.798 278.306 258.425C278.117 258.052 277.744 257.865 277.188 257.865C276.655 257.865 276.285 258.052 276.078 258.425C275.871 258.798 275.767 259.2 275.767 259.632ZM263.853 250.186V249.227C263.853 248.493 264.01 247.822 264.324 247.212C264.637 246.596 265.09 246.105 265.682 245.738C266.28 245.371 267.002 245.188 267.848 245.188C268.724 245.188 269.458 245.371 270.05 245.738C270.642 246.105 271.091 246.596 271.399 247.212C271.707 247.822 271.861 248.493 271.861 249.227V250.186C271.861 250.92 271.704 251.592 271.39 252.201C271.083 252.811 270.63 253.299 270.032 253.666C269.44 254.027 268.712 254.208 267.848 254.208C266.984 254.208 266.253 254.024 265.655 253.657C265.063 253.284 264.614 252.796 264.306 252.192C264.004 251.583 263.853 250.914 263.853 250.186ZM266.454 249.227V250.186C266.454 250.618 266.555 251.018 266.756 251.385C266.963 251.752 267.327 251.935 267.848 251.935C268.393 251.935 268.762 251.752 268.958 251.385C269.159 251.018 269.26 250.618 269.26 250.186V249.227C269.26 248.795 269.165 248.393 268.975 248.02C268.786 247.647 268.41 247.461 267.848 247.461C267.321 247.461 266.957 247.65 266.756 248.029C266.555 248.408 266.454 248.807 266.454 249.227ZM265.025 264L277.525 245.818H279.851L267.351 264H265.025ZM259.233 290.804V287.777L266.824 275.818H269.434V280.009H267.889L263.104 287.581V287.723H273.89V290.804H259.233ZM267.96 294V289.881L268.031 288.54V275.818H271.636V294H267.96ZM284.118 275.818V294H280.274V279.467H280.167L276.003 282.077V278.668L280.504 275.818H284.118Z" fill="#5B5B5B"/>
<path d="M353.684 260.591V259.632C353.684 258.904 353.837 258.235 354.145 257.626C354.459 257.01 354.912 256.519 355.504 256.152C356.101 255.779 356.829 255.593 357.688 255.593C358.558 255.593 359.288 255.776 359.88 256.143C360.478 256.51 360.928 257.001 361.23 257.617C361.538 258.226 361.691 258.898 361.691 259.632V260.591C361.691 261.319 361.538 261.991 361.23 262.606C360.922 263.216 360.469 263.704 359.871 264.071C359.274 264.444 358.546 264.63 357.688 264.63C356.817 264.63 356.087 264.444 355.495 264.071C354.903 263.704 354.453 263.216 354.145 262.606C353.837 261.991 353.684 261.319 353.684 260.591ZM356.267 259.632V260.591C356.267 261.011 356.368 261.408 356.569 261.781C356.776 262.153 357.149 262.34 357.688 262.34C358.226 262.34 358.593 262.156 358.788 261.789C358.99 261.422 359.09 261.023 359.09 260.591V259.632C359.09 259.2 358.996 258.798 358.806 258.425C358.617 258.052 358.244 257.865 357.688 257.865C357.155 257.865 356.785 258.052 356.578 258.425C356.371 258.798 356.267 259.2 356.267 259.632ZM344.353 250.186V249.227C344.353 248.493 344.51 247.822 344.824 247.212C345.137 246.596 345.59 246.105 346.182 245.738C346.78 245.371 347.502 245.188 348.348 245.188C349.224 245.188 349.958 245.371 350.55 245.738C351.142 246.105 351.591 246.596 351.899 247.212C352.207 247.822 352.361 248.493 352.361 249.227V250.186C352.361 250.92 352.204 251.592 351.89 252.201C351.583 252.811 351.13 253.299 350.532 253.666C349.94 254.027 349.212 254.208 348.348 254.208C347.484 254.208 346.753 254.024 346.155 253.657C345.563 253.284 345.114 252.796 344.806 252.192C344.504 251.583 344.353 250.914 344.353 250.186ZM346.954 249.227V250.186C346.954 250.618 347.055 251.018 347.256 251.385C347.463 251.752 347.827 251.935 348.348 251.935C348.893 251.935 349.262 251.752 349.458 251.385C349.659 251.018 349.76 250.618 349.76 250.186V249.227C349.76 248.795 349.665 248.393 349.475 248.02C349.286 247.647 348.91 247.461 348.348 247.461C347.821 247.461 347.457 247.65 347.256 248.029C347.055 248.408 346.954 248.807 346.954 249.227ZM345.525 264L358.025 245.818H360.351L347.851 264H345.525ZM344.594 294.249C343.659 294.243 342.756 294.086 341.886 293.778C341.022 293.47 340.247 292.97 339.56 292.278C338.874 291.585 338.329 290.668 337.927 289.526C337.53 288.383 337.332 286.981 337.332 285.317C337.338 283.79 337.512 282.426 337.856 281.225C338.205 280.017 338.702 278.993 339.347 278.153C339.998 277.313 340.776 276.673 341.682 276.235C342.587 275.792 343.602 275.57 344.727 275.57C345.94 275.57 347.012 275.806 347.941 276.28C348.87 276.747 349.616 277.384 350.178 278.189C350.746 278.993 351.089 279.896 351.208 280.896H347.417C347.269 280.263 346.958 279.766 346.485 279.405C346.011 279.044 345.425 278.863 344.727 278.863C343.543 278.863 342.644 279.378 342.028 280.408C341.418 281.438 341.108 282.838 341.096 284.607H341.22C341.492 284.069 341.859 283.61 342.321 283.231C342.789 282.846 343.318 282.554 343.91 282.352C344.508 282.145 345.138 282.042 345.801 282.042C346.878 282.042 347.837 282.296 348.678 282.805C349.518 283.308 350.181 284.001 350.666 284.882C351.152 285.764 351.394 286.773 351.394 287.91C351.394 289.141 351.107 290.236 350.533 291.195C349.965 292.153 349.169 292.905 348.145 293.45C347.127 293.988 345.943 294.254 344.594 294.249ZM344.576 291.23C345.168 291.23 345.698 291.088 346.165 290.804C346.633 290.52 347 290.135 347.266 289.65C347.532 289.165 347.666 288.62 347.666 288.016C347.666 287.413 347.532 286.871 347.266 286.392C347.006 285.912 346.645 285.531 346.183 285.246C345.721 284.962 345.195 284.82 344.603 284.82C344.159 284.82 343.747 284.903 343.369 285.069C342.996 285.235 342.667 285.465 342.383 285.761C342.105 286.057 341.886 286.401 341.726 286.791C341.566 287.176 341.487 287.587 341.487 288.025C341.487 288.611 341.62 289.147 341.886 289.632C342.158 290.117 342.525 290.505 342.987 290.795C343.454 291.085 343.984 291.23 344.576 291.23ZM361.249 294.4C359.722 294.394 358.408 294.018 357.307 293.272C356.212 292.526 355.369 291.446 354.777 290.032C354.191 288.617 353.901 286.915 353.907 284.927C353.907 282.944 354.2 281.254 354.786 279.858C355.377 278.461 356.221 277.398 357.316 276.67C358.417 275.937 359.728 275.57 361.249 275.57C362.77 275.57 364.078 275.937 365.173 276.67C366.273 277.404 367.12 278.47 367.712 279.866C368.304 281.257 368.597 282.944 368.591 284.927C368.591 286.921 368.295 288.626 367.703 290.04C367.117 291.455 366.276 292.535 365.182 293.281C364.087 294.027 362.776 294.4 361.249 294.4ZM361.249 291.212C362.29 291.212 363.122 290.689 363.743 289.641C364.365 288.593 364.673 287.022 364.667 284.927C364.667 283.548 364.525 282.4 364.24 281.482C363.962 280.565 363.566 279.875 363.051 279.414C362.542 278.952 361.941 278.721 361.249 278.721C360.213 278.721 359.384 279.239 358.763 280.275C358.141 281.311 357.828 282.861 357.822 284.927C357.822 286.324 357.961 287.49 358.239 288.425C358.523 289.354 358.923 290.052 359.438 290.52C359.952 290.982 360.556 291.212 361.249 291.212Z" fill="#5B5B5B"/>
<path d="M353.184 80.5909V79.6321C353.184 78.9041 353.337 78.2353 353.645 77.6257C353.959 77.0102 354.412 76.5189 355.004 76.152C355.601 75.7791 356.329 75.5927 357.188 75.5927C358.058 75.5927 358.788 75.7762 359.38 76.1431C359.978 76.5101 360.428 77.0013 360.73 77.6168C361.038 78.2264 361.191 78.8982 361.191 79.6321V80.5909C361.191 81.3189 361.038 81.9906 360.73 82.6062C360.422 83.2158 359.969 83.7041 359.371 84.071C358.774 84.4439 358.046 84.6303 357.188 84.6303C356.317 84.6303 355.587 84.4439 354.995 84.071C354.403 83.7041 353.953 83.2158 353.645 82.6062C353.337 81.9906 353.184 81.3189 353.184 80.5909ZM355.767 79.6321V80.5909C355.767 81.0111 355.868 81.4077 356.069 81.7805C356.276 82.1534 356.649 82.3398 357.188 82.3398C357.726 82.3398 358.093 82.1564 358.288 81.7894C358.49 81.4225 358.59 81.023 358.59 80.5909V79.6321C358.59 79.2 358.496 78.7976 358.306 78.4247C358.117 78.0518 357.744 77.8654 357.188 77.8654C356.655 77.8654 356.285 78.0518 356.078 78.4247C355.871 78.7976 355.767 79.2 355.767 79.6321ZM343.853 70.1861V69.2273C343.853 68.4934 344.01 67.8216 344.324 67.212C344.637 66.5965 345.09 66.1052 345.682 65.7383C346.28 65.3713 347.002 65.1879 347.848 65.1879C348.724 65.1879 349.458 65.3713 350.05 65.7383C350.642 66.1052 351.091 66.5965 351.399 67.212C351.707 67.8216 351.861 68.4934 351.861 69.2273V70.1861C351.861 70.92 351.704 71.5917 351.39 72.2013C351.083 72.811 350.63 73.2992 350.032 73.6662C349.44 74.0272 348.712 74.2077 347.848 74.2077C346.984 74.2077 346.253 74.0243 345.655 73.6573C345.063 73.2844 344.614 72.7962 344.306 72.1925C344.004 71.5829 343.853 70.9141 343.853 70.1861ZM346.454 69.2273V70.1861C346.454 70.6181 346.555 71.0176 346.756 71.3846C346.963 71.7515 347.327 71.935 347.848 71.935C348.393 71.935 348.762 71.7515 348.958 71.3846C349.159 71.0176 349.26 70.6181 349.26 70.1861V69.2273C349.26 68.7952 349.165 68.3928 348.975 68.0199C348.786 67.647 348.41 67.4606 347.848 67.4606C347.321 67.4606 346.957 67.65 346.756 68.0288C346.555 68.4076 346.454 68.8071 346.454 69.2273ZM345.025 84L357.525 65.8182H359.851L347.351 84H345.025ZM344.203 114.249C342.877 114.249 341.696 114.021 340.66 113.565C339.63 113.103 338.817 112.47 338.219 111.665C337.627 110.854 337.322 109.919 337.304 108.86H341.175C341.199 109.304 341.344 109.694 341.61 110.032C341.882 110.363 342.244 110.621 342.693 110.804C343.143 110.987 343.649 111.079 344.211 111.079C344.797 111.079 345.315 110.976 345.765 110.768C346.215 110.561 346.567 110.274 346.822 109.907C347.076 109.54 347.203 109.117 347.203 108.638C347.203 108.152 347.067 107.723 346.795 107.35C346.529 106.972 346.144 106.676 345.641 106.463C345.144 106.25 344.552 106.143 343.865 106.143H342.17V103.32H343.865C344.445 103.32 344.957 103.219 345.401 103.018C345.851 102.817 346.2 102.539 346.449 102.184C346.697 101.823 346.822 101.402 346.822 100.923C346.822 100.467 346.712 100.068 346.493 99.7244C346.28 99.3752 345.978 99.103 345.587 98.9077C345.203 98.7124 344.753 98.6147 344.238 98.6147C343.717 98.6147 343.241 98.7094 342.809 98.8988C342.377 99.0823 342.03 99.3456 341.77 99.6889C341.51 100.032 341.371 100.435 341.353 100.896H337.668C337.686 99.8487 337.985 98.9254 338.565 98.1264C339.145 97.3274 339.926 96.703 340.909 96.2532C341.897 95.7975 343.013 95.5696 344.256 95.5696C345.511 95.5696 346.608 95.7975 347.549 96.2532C348.491 96.7089 349.221 97.3245 349.742 98.0998C350.269 98.8692 350.529 99.7333 350.524 100.692C350.529 101.71 350.213 102.559 349.574 103.24C348.94 103.921 348.115 104.353 347.097 104.536V104.678C348.434 104.85 349.452 105.315 350.151 106.072C350.855 106.824 351.204 107.765 351.198 108.895C351.204 109.931 350.905 110.851 350.302 111.656C349.704 112.461 348.878 113.094 347.825 113.556C346.771 114.018 345.564 114.249 344.203 114.249ZM360.939 114.249C360.004 114.243 359.102 114.086 358.232 113.778C357.368 113.47 356.592 112.97 355.906 112.278C355.219 111.585 354.675 110.668 354.272 109.526C353.876 108.383 353.677 106.981 353.677 105.317C353.683 103.79 353.858 102.426 354.201 101.225C354.55 100.017 355.048 98.9935 355.693 98.1531C356.344 97.3126 357.122 96.6734 358.028 96.2354C358.933 95.7915 359.948 95.5696 361.073 95.5696C362.286 95.5696 363.357 95.8063 364.286 96.2798C365.216 96.7474 365.961 97.3836 366.524 98.1886C367.092 98.9935 367.435 99.8961 367.553 100.896H363.763C363.615 100.263 363.304 99.7659 362.83 99.4048C362.357 99.0438 361.771 98.8633 361.073 98.8633C359.889 98.8633 358.989 99.3782 358.374 100.408C357.764 101.438 357.453 102.838 357.442 104.607H357.566C357.838 104.069 358.205 103.61 358.667 103.231C359.134 102.846 359.664 102.554 360.256 102.352C360.854 102.145 361.484 102.042 362.147 102.042C363.224 102.042 364.183 102.296 365.023 102.805C365.864 103.308 366.527 104.001 367.012 104.882C367.497 105.764 367.74 106.773 367.74 107.91C367.74 109.141 367.453 110.236 366.879 111.195C366.311 112.153 365.515 112.905 364.491 113.45C363.473 113.988 362.289 114.254 360.939 114.249ZM360.922 111.23C361.514 111.23 362.043 111.088 362.511 110.804C362.978 110.52 363.345 110.135 363.612 109.65C363.878 109.165 364.011 108.62 364.011 108.016C364.011 107.413 363.878 106.871 363.612 106.392C363.351 105.912 362.99 105.531 362.529 105.246C362.067 104.962 361.54 104.82 360.948 104.82C360.504 104.82 360.093 104.903 359.714 105.069C359.341 105.235 359.013 105.465 358.729 105.761C358.451 106.057 358.232 106.401 358.072 106.791C357.912 107.176 357.832 107.587 357.832 108.025C357.832 108.611 357.965 109.147 358.232 109.632C358.504 110.117 358.871 110.505 359.333 110.795C359.8 111.085 360.33 111.23 360.922 111.23Z" fill="#5B5B5B"/>
<path d="M273.684 80.5909V79.6321C273.684 78.9041 273.837 78.2353 274.145 77.6257C274.459 77.0102 274.912 76.5189 275.504 76.152C276.101 75.7791 276.829 75.5927 277.688 75.5927C278.558 75.5927 279.288 75.7762 279.88 76.1431C280.478 76.5101 280.928 77.0013 281.23 77.6168C281.538 78.2264 281.691 78.8982 281.691 79.6321V80.5909C281.691 81.3189 281.538 81.9906 281.23 82.6062C280.922 83.2158 280.469 83.7041 279.871 84.071C279.274 84.4439 278.546 84.6303 277.688 84.6303C276.817 84.6303 276.087 84.4439 275.495 84.071C274.903 83.7041 274.453 83.2158 274.145 82.6062C273.837 81.9906 273.684 81.3189 273.684 80.5909ZM276.267 79.6321V80.5909C276.267 81.0111 276.368 81.4077 276.569 81.7805C276.776 82.1534 277.149 82.3398 277.688 82.3398C278.226 82.3398 278.593 82.1564 278.788 81.7894C278.99 81.4225 279.09 81.023 279.09 80.5909V79.6321C279.09 79.2 278.996 78.7976 278.806 78.4247C278.617 78.0518 278.244 77.8654 277.688 77.8654C277.155 77.8654 276.785 78.0518 276.578 78.4247C276.371 78.7976 276.267 79.2 276.267 79.6321ZM264.353 70.1861V69.2273C264.353 68.4934 264.51 67.8216 264.824 67.212C265.137 66.5965 265.59 66.1052 266.182 65.7383C266.78 65.3713 267.502 65.1879 268.348 65.1879C269.224 65.1879 269.958 65.3713 270.55 65.7383C271.142 66.1052 271.591 66.5965 271.899 67.212C272.207 67.8216 272.361 68.4934 272.361 69.2273V70.1861C272.361 70.92 272.204 71.5917 271.89 72.2013C271.583 72.811 271.13 73.2992 270.532 73.6662C269.94 74.0272 269.212 74.2077 268.348 74.2077C267.484 74.2077 266.753 74.0243 266.155 73.6573C265.563 73.2844 265.114 72.7962 264.806 72.1925C264.504 71.5829 264.353 70.9141 264.353 70.1861ZM266.954 69.2273V70.1861C266.954 70.6181 267.055 71.0176 267.256 71.3846C267.463 71.7515 267.827 71.935 268.348 71.935C268.893 71.935 269.262 71.7515 269.458 71.3846C269.659 71.0176 269.76 70.6181 269.76 70.1861V69.2273C269.76 68.7952 269.665 68.3928 269.475 68.0199C269.286 67.647 268.91 67.4606 268.348 67.4606C267.821 67.4606 267.457 67.65 267.256 68.0288C267.055 68.4076 266.954 68.8071 266.954 69.2273ZM265.525 84L278.025 65.8182H280.351L267.851 84H265.525ZM265.143 114.249C264.208 114.243 263.305 114.086 262.435 113.778C261.571 113.47 260.796 112.97 260.109 112.278C259.423 111.585 258.878 110.668 258.476 109.526C258.079 108.383 257.881 106.981 257.881 105.317C257.887 103.79 258.062 102.426 258.405 101.225C258.754 100.017 259.251 98.9935 259.896 98.1531C260.547 97.3126 261.326 96.6734 262.231 96.2354C263.137 95.7915 264.152 95.5696 265.276 95.5696C266.49 95.5696 267.561 95.8063 268.49 96.2798C269.419 96.7474 270.165 97.3836 270.727 98.1886C271.295 98.9935 271.639 99.8961 271.757 100.896H267.966C267.818 100.263 267.508 99.7659 267.034 99.4048C266.561 99.0438 265.975 98.8633 265.276 98.8633C264.093 98.8633 263.193 99.3782 262.577 100.408C261.968 101.438 261.657 102.838 261.645 104.607H261.77C262.042 104.069 262.409 103.61 262.87 103.231C263.338 102.846 263.868 102.554 264.46 102.352C265.057 102.145 265.688 102.042 266.35 102.042C267.428 102.042 268.386 102.296 269.227 102.805C270.067 103.308 270.73 104.001 271.216 104.882C271.701 105.764 271.944 106.773 271.944 107.91C271.944 109.141 271.656 110.236 271.082 111.195C270.514 112.153 269.718 112.905 268.694 113.45C267.676 113.988 266.493 114.254 265.143 114.249ZM265.125 111.23C265.717 111.23 266.247 111.088 266.714 110.804C267.182 110.52 267.549 110.135 267.815 109.65C268.082 109.165 268.215 108.62 268.215 108.016C268.215 107.413 268.082 106.871 267.815 106.392C267.555 105.912 267.194 105.531 266.732 105.246C266.271 104.962 265.744 104.82 265.152 104.82C264.708 104.82 264.297 104.903 263.918 105.069C263.545 105.235 263.217 105.465 262.933 105.761C262.654 106.057 262.435 106.401 262.276 106.791C262.116 107.176 262.036 107.587 262.036 108.025C262.036 108.611 262.169 109.147 262.435 109.632C262.708 110.117 263.075 110.505 263.536 110.795C264.004 111.085 264.533 111.23 265.125 111.23ZM281.31 114.249C280.055 114.249 278.936 114.018 277.954 113.556C276.977 113.094 276.202 112.458 275.628 111.647C275.054 110.837 274.755 109.907 274.731 108.86H278.46C278.501 109.564 278.797 110.135 279.348 110.573C279.898 111.011 280.552 111.23 281.31 111.23C281.913 111.23 282.446 111.097 282.908 110.831C283.375 110.558 283.739 110.183 284 109.703C284.266 109.218 284.399 108.661 284.399 108.034C284.399 107.395 284.263 106.833 283.991 106.347C283.724 105.862 283.355 105.483 282.881 105.211C282.408 104.939 281.866 104.8 281.256 104.794C280.724 104.794 280.206 104.903 279.703 105.122C279.206 105.341 278.818 105.64 278.54 106.019L275.122 105.406L275.983 95.8182H287.098V98.9609H279.152L278.682 103.515H278.788C279.108 103.065 279.59 102.693 280.235 102.397C280.881 102.101 281.603 101.953 282.402 101.953C283.497 101.953 284.473 102.21 285.331 102.725C286.19 103.24 286.867 103.947 287.364 104.847C287.862 105.741 288.107 106.77 288.101 107.936C288.107 109.162 287.823 110.251 287.249 111.203C286.681 112.15 285.885 112.896 284.861 113.441C283.843 113.979 282.659 114.249 281.31 114.249Z" fill="#5B5B5B"/>
<path d="M191.82 48.9091V47.7585C191.82 46.8849 192.005 46.0824 192.374 45.3509C192.751 44.6122 193.294 44.0227 194.004 43.5824C194.722 43.1349 195.595 42.9112 196.625 42.9112C197.669 42.9112 198.546 43.1314 199.256 43.5717C199.974 44.0121 200.513 44.6016 200.876 45.3402C201.245 46.0717 201.43 46.8778 201.43 47.7585V48.9091C201.43 49.7827 201.245 50.5888 200.876 51.3274C200.506 52.0589 199.963 52.6449 199.246 53.0852C198.528 53.5327 197.655 53.7564 196.625 53.7564C195.581 53.7564 194.704 53.5327 193.994 53.0852C193.283 52.6449 192.744 52.0589 192.374 51.3274C192.005 50.5888 191.82 49.7827 191.82 48.9091ZM194.92 47.7585V48.9091C194.92 49.4134 195.041 49.8892 195.283 50.3366C195.531 50.7841 195.979 51.0078 196.625 51.0078C197.271 51.0078 197.712 50.7876 197.946 50.3473C198.188 49.907 198.308 49.4276 198.308 48.9091V47.7585C198.308 47.2401 198.195 46.7571 197.967 46.3097C197.74 45.8622 197.293 45.6385 196.625 45.6385C195.986 45.6385 195.542 45.8622 195.293 46.3097C195.045 46.7571 194.92 47.2401 194.92 47.7585ZM180.624 36.4233V35.2727C180.624 34.392 180.812 33.5859 181.188 32.8544C181.565 32.1158 182.108 31.5263 182.818 31.0859C183.536 30.6456 184.402 30.4254 185.418 30.4254C186.469 30.4254 187.349 30.6456 188.06 31.0859C188.77 31.5263 189.31 32.1158 189.679 32.8544C190.048 33.5859 190.233 34.392 190.233 35.2727V36.4233C190.233 37.304 190.045 38.1101 189.668 38.8416C189.299 39.5732 188.756 40.1591 188.038 40.5994C187.328 41.0327 186.455 41.2493 185.418 41.2493C184.381 41.2493 183.504 41.0291 182.786 40.5888C182.076 40.1413 181.536 39.5554 181.167 38.831C180.805 38.0994 180.624 37.2969 180.624 36.4233ZM183.745 35.2727V36.4233C183.745 36.9418 183.866 37.4212 184.107 37.8615C184.356 38.3018 184.793 38.522 185.418 38.522C186.071 38.522 186.515 38.3018 186.749 37.8615C186.991 37.4212 187.112 36.9418 187.112 36.4233V35.2727C187.112 34.7543 186.998 34.2713 186.771 33.8239C186.543 33.3764 186.092 33.1527 185.418 33.1527C184.786 33.1527 184.349 33.38 184.107 33.8345C183.866 34.2891 183.745 34.7685 183.745 35.2727ZM182.03 53L197.03 31.1818H199.821L184.821 53H182.03ZM173.418 89V85.6761L181.184 78.4851C181.845 77.8459 182.399 77.2706 182.846 76.7592C183.301 76.2479 183.645 75.7472 183.88 75.2571C184.114 74.7599 184.231 74.2237 184.231 73.6484C184.231 73.0092 184.085 72.4588 183.794 71.9972C183.503 71.5284 183.105 71.1697 182.601 70.9212C182.097 70.6655 181.525 70.5376 180.886 70.5376C180.218 70.5376 179.636 70.6726 179.139 70.9425C178.642 71.2124 178.258 71.5994 177.988 72.1037C177.718 72.608 177.583 73.2081 177.583 73.9041H173.205C173.205 72.4766 173.528 71.2372 174.174 70.1861C174.821 69.1349 175.726 68.3217 176.891 67.7464C178.056 67.1712 179.398 66.8835 180.918 66.8835C182.48 66.8835 183.84 67.1605 184.998 67.7145C186.163 68.2614 187.068 69.0213 187.715 69.9943C188.361 70.9673 188.684 72.0824 188.684 73.3395C188.684 74.1634 188.521 74.9766 188.194 75.7791C187.875 76.5817 187.303 77.473 186.479 78.4531C185.655 79.4261 184.494 80.5945 182.995 81.9581L179.81 85.0795V85.2287H188.972V89H173.418ZM200.209 66.8835C201.331 66.8835 202.41 67.0717 203.447 67.4482C204.491 67.8246 205.422 68.4247 206.238 69.2486C207.062 70.0724 207.712 71.1662 208.188 72.5298C208.671 73.8864 208.916 75.5518 208.923 77.5263C208.923 79.38 208.714 81.0348 208.294 82.4908C207.883 83.9396 207.29 85.1719 206.515 86.1875C205.741 87.2031 204.807 87.9773 203.714 88.5099C202.62 89.0355 201.398 89.2983 200.049 89.2983C198.593 89.2983 197.307 89.0178 196.192 88.4567C195.077 87.8885 194.179 87.1179 193.497 86.1449C192.822 85.1648 192.414 84.0639 192.272 82.8423H196.821C196.998 83.6378 197.371 84.2557 197.939 84.696C198.508 85.1293 199.211 85.3459 200.049 85.3459C201.469 85.3459 202.549 84.728 203.287 83.4922C204.026 82.2493 204.399 80.5483 204.406 78.3892H204.257C203.93 79.0284 203.49 79.5788 202.936 80.0405C202.382 80.495 201.746 80.8466 201.029 81.0952C200.319 81.3438 199.562 81.468 198.76 81.468C197.474 81.468 196.327 81.1662 195.319 80.5625C194.31 79.9588 193.515 79.1278 192.932 78.0696C192.35 77.0114 192.059 75.804 192.059 74.4474C192.052 72.9844 192.389 71.6811 193.071 70.5376C193.753 69.3942 194.704 68.4993 195.926 67.853C197.155 67.1996 198.582 66.8764 200.209 66.8835ZM200.241 70.5057C199.523 70.5057 198.884 70.6761 198.323 71.017C197.769 71.358 197.329 71.8161 197.002 72.3913C196.682 72.9666 196.526 73.6094 196.533 74.3196C196.533 75.0369 196.689 75.6832 197.002 76.2585C197.321 76.8267 197.755 77.2812 198.302 77.6222C198.856 77.956 199.488 78.1229 200.198 78.1229C200.731 78.1229 201.224 78.0234 201.679 77.8246C202.133 77.6257 202.527 77.3523 202.861 77.0043C203.202 76.6491 203.468 76.2408 203.66 75.7791C203.852 75.3175 203.948 74.8274 203.948 74.3089C203.941 73.62 203.777 72.9879 203.458 72.4126C203.138 71.8374 202.698 71.3757 202.137 71.0277C201.576 70.6797 200.944 70.5057 200.241 70.5057Z" fill="#5B5B5B"/>
<path d="M273.684 635.591V634.632C273.684 633.904 273.837 633.235 274.145 632.626C274.459 632.01 274.912 631.519 275.504 631.152C276.101 630.779 276.829 630.593 277.688 630.593C278.558 630.593 279.288 630.776 279.88 631.143C280.478 631.51 280.928 632.001 281.23 632.617C281.538 633.226 281.691 633.898 281.691 634.632V635.591C281.691 636.319 281.538 636.991 281.23 637.606C280.922 638.216 280.469 638.704 279.871 639.071C279.274 639.444 278.546 639.63 277.688 639.63C276.817 639.63 276.087 639.444 275.495 639.071C274.903 638.704 274.453 638.216 274.145 637.606C273.837 636.991 273.684 636.319 273.684 635.591ZM276.267 634.632V635.591C276.267 636.011 276.368 636.408 276.569 636.781C276.776 637.153 277.149 637.34 277.688 637.34C278.226 637.34 278.593 637.156 278.788 636.789C278.99 636.422 279.09 636.023 279.09 635.591V634.632C279.09 634.2 278.996 633.798 278.806 633.425C278.617 633.052 278.244 632.865 277.688 632.865C277.155 632.865 276.785 633.052 276.578 633.425C276.371 633.798 276.267 634.2 276.267 634.632ZM264.353 625.186V624.227C264.353 623.493 264.51 622.822 264.824 622.212C265.137 621.596 265.59 621.105 266.182 620.738C266.78 620.371 267.502 620.188 268.348 620.188C269.224 620.188 269.958 620.371 270.55 620.738C271.142 621.105 271.591 621.596 271.899 622.212C272.207 622.822 272.361 623.493 272.361 624.227V625.186C272.361 625.92 272.204 626.592 271.89 627.201C271.583 627.811 271.13 628.299 270.532 628.666C269.94 629.027 269.212 629.208 268.348 629.208C267.484 629.208 266.753 629.024 266.155 628.657C265.563 628.284 265.114 627.796 264.806 627.192C264.504 626.583 264.353 625.914 264.353 625.186ZM266.954 624.227V625.186C266.954 625.618 267.055 626.018 267.256 626.385C267.463 626.752 267.827 626.935 268.348 626.935C268.893 626.935 269.262 626.752 269.458 626.385C269.659 626.018 269.76 625.618 269.76 625.186V624.227C269.76 623.795 269.665 623.393 269.475 623.02C269.286 622.647 268.91 622.461 268.348 622.461C267.821 622.461 267.457 622.65 267.256 623.029C267.055 623.408 266.954 623.807 266.954 624.227ZM265.525 639L278.025 620.818H280.351L267.851 639H265.525ZM266.839 679.249C265.513 679.249 264.332 679.021 263.297 678.565C262.267 678.103 261.453 677.47 260.855 676.665C260.263 675.854 259.958 674.919 259.941 673.86H263.811C263.835 674.304 263.98 674.694 264.246 675.032C264.519 675.363 264.88 675.621 265.33 675.804C265.779 675.987 266.285 676.079 266.848 676.079C267.434 676.079 267.951 675.976 268.401 675.768C268.851 675.561 269.203 675.274 269.458 674.907C269.712 674.54 269.839 674.117 269.839 673.638C269.839 673.152 269.703 672.723 269.431 672.35C269.165 671.972 268.78 671.676 268.277 671.463C267.78 671.25 267.188 671.143 266.501 671.143H264.806V668.32H266.501C267.081 668.32 267.593 668.219 268.037 668.018C268.487 667.817 268.836 667.539 269.085 667.184C269.333 666.823 269.458 666.402 269.458 665.923C269.458 665.467 269.348 665.068 269.129 664.724C268.916 664.375 268.614 664.103 268.224 663.908C267.839 663.712 267.389 663.615 266.874 663.615C266.353 663.615 265.877 663.709 265.445 663.899C265.013 664.082 264.667 664.346 264.406 664.689C264.146 665.032 264.007 665.435 263.989 665.896H260.305C260.322 664.849 260.621 663.925 261.201 663.126C261.781 662.327 262.563 661.703 263.545 661.253C264.533 660.797 265.649 660.57 266.892 660.57C268.147 660.57 269.245 660.797 270.186 661.253C271.127 661.709 271.858 662.324 272.379 663.1C272.905 663.869 273.166 664.733 273.16 665.692C273.166 666.71 272.849 667.559 272.21 668.24C271.577 668.921 270.751 669.353 269.733 669.536V669.678C271.071 669.85 272.089 670.315 272.787 671.072C273.491 671.824 273.84 672.765 273.835 673.895C273.84 674.931 273.542 675.851 272.938 676.656C272.34 677.461 271.514 678.094 270.461 678.556C269.407 679.018 268.2 679.249 266.839 679.249ZM284.508 660.818V679H280.664V664.467H280.557L276.394 667.077V663.668L280.895 660.818H284.508Z" fill="#5B5B5B"/>
<path d="M353.684 635.591V634.632C353.684 633.904 353.837 633.235 354.145 632.626C354.459 632.01 354.912 631.519 355.504 631.152C356.101 630.779 356.829 630.593 357.688 630.593C358.558 630.593 359.288 630.776 359.88 631.143C360.478 631.51 360.928 632.001 361.23 632.617C361.538 633.226 361.691 633.898 361.691 634.632V635.591C361.691 636.319 361.538 636.991 361.23 637.606C360.922 638.216 360.469 638.704 359.871 639.071C359.274 639.444 358.546 639.63 357.688 639.63C356.817 639.63 356.087 639.444 355.495 639.071C354.903 638.704 354.453 638.216 354.145 637.606C353.837 636.991 353.684 636.319 353.684 635.591ZM356.267 634.632V635.591C356.267 636.011 356.368 636.408 356.569 636.781C356.776 637.153 357.149 637.34 357.688 637.34C358.226 637.34 358.593 637.156 358.788 636.789C358.99 636.422 359.09 636.023 359.09 635.591V634.632C359.09 634.2 358.996 633.798 358.806 633.425C358.617 633.052 358.244 632.865 357.688 632.865C357.155 632.865 356.785 633.052 356.578 633.425C356.371 633.798 356.267 634.2 356.267 634.632ZM344.353 625.186V624.227C344.353 623.493 344.51 622.822 344.824 622.212C345.137 621.596 345.59 621.105 346.182 620.738C346.78 620.371 347.502 620.188 348.348 620.188C349.224 620.188 349.958 620.371 350.55 620.738C351.142 621.105 351.591 621.596 351.899 622.212C352.207 622.822 352.361 623.493 352.361 624.227V625.186C352.361 625.92 352.204 626.592 351.89 627.201C351.583 627.811 351.13 628.299 350.532 628.666C349.94 629.027 349.212 629.208 348.348 629.208C347.484 629.208 346.753 629.024 346.155 628.657C345.563 628.284 345.114 627.796 344.806 627.192C344.504 626.583 344.353 625.914 344.353 625.186ZM346.954 624.227V625.186C346.954 625.618 347.055 626.018 347.256 626.385C347.463 626.752 347.827 626.935 348.348 626.935C348.893 626.935 349.262 626.752 349.458 626.385C349.659 626.018 349.76 625.618 349.76 625.186V624.227C349.76 623.795 349.665 623.393 349.475 623.02C349.286 622.647 348.91 622.461 348.348 622.461C347.821 622.461 347.457 622.65 347.256 623.029C347.055 623.408 346.954 623.807 346.954 624.227ZM345.525 639L358.025 620.818H360.351L347.851 639H345.525ZM337.67 675.804V672.777L345.261 660.818H347.871V665.009H346.326L341.541 672.581V672.723H352.328V675.804H337.67ZM346.397 679V674.881L346.468 673.54V660.818H350.073V679H346.397ZM361.529 679.249C360.275 679.249 359.156 679.018 358.174 678.556C357.197 678.094 356.422 677.458 355.848 676.647C355.273 675.837 354.975 674.907 354.951 673.86H358.68C358.721 674.564 359.017 675.135 359.567 675.573C360.118 676.011 360.772 676.23 361.529 676.23C362.133 676.23 362.666 676.097 363.127 675.831C363.595 675.558 363.959 675.183 364.219 674.703C364.486 674.218 364.619 673.661 364.619 673.034C364.619 672.395 364.483 671.833 364.21 671.347C363.944 670.862 363.574 670.483 363.101 670.211C362.627 669.939 362.086 669.8 361.476 669.794C360.943 669.794 360.426 669.903 359.922 670.122C359.425 670.341 359.038 670.64 358.759 671.019L355.342 670.406L356.203 660.818H367.318V663.961H359.372L358.902 668.515H359.008C359.328 668.065 359.81 667.693 360.455 667.397C361.1 667.101 361.822 666.953 362.621 666.953C363.716 666.953 364.693 667.21 365.551 667.725C366.409 668.24 367.087 668.947 367.584 669.847C368.081 670.741 368.327 671.77 368.321 672.936C368.327 674.162 368.043 675.251 367.469 676.203C366.9 677.15 366.104 677.896 365.081 678.441C364.063 678.979 362.879 679.249 361.529 679.249Z" fill="#5B5B5B"/>
<path d="M56.957 415.227V413.885C56.957 412.866 57.1725 411.929 57.6033 411.076C58.0425 410.214 58.6764 409.527 59.505 409.013C60.3419 408.491 61.361 408.23 62.5625 408.23C63.7805 408.23 64.8039 408.487 65.6325 409C66.4693 409.514 67.0991 410.202 67.5217 411.064C67.9525 411.917 68.168 412.857 68.168 413.885V415.227C68.168 416.246 67.9525 417.187 67.5217 418.049C67.0908 418.902 66.4569 419.586 65.62 420.099C64.7831 420.621 63.764 420.882 62.5625 420.882C61.3445 420.882 60.3211 420.621 59.4925 420.099C58.6639 419.586 58.0342 418.902 57.6033 418.049C57.1725 417.187 56.957 416.246 56.957 415.227ZM60.5739 413.885V415.227C60.5739 415.816 60.7147 416.371 60.9964 416.893C61.2865 417.415 61.8085 417.676 62.5625 417.676C63.3165 417.676 63.8303 417.419 64.1037 416.905C64.3854 416.391 64.5263 415.832 64.5263 415.227V413.885C64.5263 413.28 64.3937 412.717 64.1286 412.195C63.8634 411.673 63.3414 411.412 62.5625 411.412C61.8168 411.412 61.2989 411.673 61.0089 412.195C60.7189 412.717 60.5739 413.28 60.5739 413.885ZM43.8942 400.661V399.318C43.8942 398.291 44.1138 397.35 44.5529 396.497C44.9921 395.635 45.6259 394.947 46.4545 394.434C47.2914 393.92 48.3023 393.663 49.4872 393.663C50.7135 393.663 51.741 393.92 52.5696 394.434C53.3982 394.947 54.0279 395.635 54.4588 396.497C54.8897 397.35 55.1051 398.291 55.1051 399.318V400.661C55.1051 401.688 54.8855 402.628 54.4464 403.482C54.0155 404.335 53.3816 405.019 52.5447 405.533C51.7161 406.038 50.697 406.291 49.4872 406.291C48.2775 406.291 47.2541 406.034 46.4173 405.52C45.5887 404.998 44.9589 404.315 44.5281 403.469C44.1055 402.616 43.8942 401.68 43.8942 400.661ZM47.5359 399.318V400.661C47.5359 401.265 47.6767 401.825 47.9585 402.338C48.2485 402.852 48.758 403.109 49.4872 403.109C50.2495 403.109 50.7674 402.852 51.0408 402.338C51.3226 401.825 51.4634 401.265 51.4634 400.661V399.318C51.4634 398.713 51.3308 398.15 51.0657 397.628C50.8005 397.106 50.2744 396.845 49.4872 396.845C48.7498 396.845 48.2402 397.11 47.9585 397.64C47.6767 398.171 47.5359 398.73 47.5359 399.318ZM45.5348 420L63.0348 394.545H66.2912L48.7912 420H45.5348ZM34.2477 455.526V451.287L44.8745 434.545H48.5286V440.412H46.366L39.6668 451.014V451.213H54.768V455.526H34.2477ZM46.4654 460V454.233L46.5649 452.356V434.545H51.611V460H46.4654ZM67.8495 460.348C65.9354 460.348 64.2326 460.037 62.7412 459.416C61.258 458.786 60.0938 457.929 59.2486 456.843C58.4035 455.758 57.9809 454.527 57.9809 453.152C57.9809 452.091 58.2212 451.117 58.7017 450.231C59.1906 449.336 59.8535 448.594 60.6904 448.006C61.5273 447.409 62.4636 447.028 63.4993 446.863V446.689C62.1404 446.415 61.0384 445.756 60.1932 444.712C59.3481 443.66 58.9255 442.438 58.9255 441.046C58.9255 439.728 59.3108 438.556 60.0814 437.528C60.852 436.493 61.9084 435.681 63.2508 435.092C64.6014 434.496 66.1343 434.197 67.8495 434.197C69.5647 434.197 71.0934 434.496 72.4358 435.092C73.7864 435.689 74.847 436.505 75.6176 437.541C76.3882 438.568 76.7776 439.737 76.7859 441.046C76.7776 442.446 76.3468 443.668 75.4933 444.712C74.6398 445.756 73.5461 446.415 72.212 446.689V446.863C73.2312 447.028 74.1551 447.409 74.9837 448.006C75.8206 448.594 76.4835 449.336 76.9723 450.231C77.4695 451.117 77.7222 452.091 77.7305 453.152C77.7222 454.527 77.2955 455.758 76.4503 456.843C75.6052 457.929 74.4368 458.786 72.9454 459.416C71.4622 460.037 69.7635 460.348 67.8495 460.348ZM67.8495 456.396C68.7029 456.396 69.4487 456.242 70.0867 455.936C70.7247 455.621 71.2219 455.19 71.5782 454.643C71.9428 454.088 72.125 453.45 72.125 452.729C72.125 451.992 71.9386 451.341 71.5657 450.778C71.1929 450.206 70.6874 449.759 70.0494 449.435C69.4114 449.104 68.6781 448.938 67.8495 448.938C67.0292 448.938 66.2959 449.104 65.6495 449.435C65.0032 449.759 64.4937 450.206 64.1208 450.778C63.7562 451.341 63.5739 451.992 63.5739 452.729C63.5739 453.45 63.7521 454.088 64.1084 454.643C64.4647 455.19 64.966 455.621 65.6123 455.936C66.2586 456.242 67.0043 456.396 67.8495 456.396ZM67.8495 445.023C68.5621 445.023 69.1959 444.878 69.7511 444.588C70.3063 444.298 70.7413 443.896 71.0562 443.382C71.371 442.869 71.5285 442.276 71.5285 441.605C71.5285 440.942 71.371 440.362 71.0562 439.865C70.7413 439.36 70.3104 438.966 69.7635 438.684C69.2167 438.394 68.5786 438.249 67.8495 438.249C67.1286 438.249 66.4906 438.394 65.9354 438.684C65.3803 438.966 64.9452 439.36 64.6304 439.865C64.3238 440.362 64.1705 440.942 64.1705 441.605C64.1705 442.276 64.3279 442.869 64.6428 443.382C64.9577 443.896 65.3927 444.298 65.9478 444.588C66.503 444.878 67.1369 445.023 67.8495 445.023Z" fill="#5B5B5B"/>
<path d="M56.957 691.227V689.885C56.957 688.866 57.1725 687.929 57.6033 687.076C58.0425 686.214 58.6764 685.527 59.505 685.013C60.3419 684.491 61.361 684.23 62.5625 684.23C63.7805 684.23 64.8039 684.487 65.6325 685C66.4693 685.514 67.0991 686.202 67.5217 687.064C67.9525 687.917 68.168 688.857 68.168 689.885V691.227C68.168 692.246 67.9525 693.187 67.5217 694.049C67.0908 694.902 66.4569 695.586 65.62 696.099C64.7831 696.621 63.764 696.882 62.5625 696.882C61.3445 696.882 60.3211 696.621 59.4925 696.099C58.6639 695.586 58.0342 694.902 57.6033 694.049C57.1725 693.187 56.957 692.246 56.957 691.227ZM60.5739 689.885V691.227C60.5739 691.816 60.7147 692.371 60.9964 692.893C61.2865 693.415 61.8085 693.676 62.5625 693.676C63.3165 693.676 63.8303 693.419 64.1037 692.905C64.3854 692.391 64.5263 691.832 64.5263 691.227V689.885C64.5263 689.28 64.3937 688.717 64.1286 688.195C63.8634 687.673 63.3414 687.412 62.5625 687.412C61.8168 687.412 61.2989 687.673 61.0089 688.195C60.7189 688.717 60.5739 689.28 60.5739 689.885ZM43.8942 676.661V675.318C43.8942 674.291 44.1138 673.35 44.5529 672.497C44.9921 671.635 45.6259 670.947 46.4545 670.434C47.2914 669.92 48.3023 669.663 49.4872 669.663C50.7135 669.663 51.741 669.92 52.5696 670.434C53.3982 670.947 54.0279 671.635 54.4588 672.497C54.8897 673.35 55.1051 674.291 55.1051 675.318V676.661C55.1051 677.688 54.8855 678.628 54.4464 679.482C54.0155 680.335 53.3816 681.019 52.5447 681.533C51.7161 682.038 50.697 682.291 49.4872 682.291C48.2775 682.291 47.2541 682.034 46.4173 681.52C45.5887 680.998 44.9589 680.315 44.5281 679.469C44.1055 678.616 43.8942 677.68 43.8942 676.661ZM47.5359 675.318V676.661C47.5359 677.265 47.6767 677.825 47.9585 678.338C48.2485 678.852 48.758 679.109 49.4872 679.109C50.2495 679.109 50.7674 678.852 51.0408 678.338C51.3226 677.825 51.4634 677.265 51.4634 676.661V675.318C51.4634 674.713 51.3308 674.15 51.0657 673.628C50.8005 673.106 50.2744 672.845 49.4872 672.845C48.7498 672.845 48.2402 673.11 47.9585 673.64C47.6767 674.171 47.5359 674.73 47.5359 675.318ZM45.5348 696L63.0348 670.545H66.2912L48.7912 696H45.5348ZM36.0173 736V732.122L45.078 723.733C45.8486 722.987 46.4949 722.316 47.017 721.719C47.5473 721.123 47.9491 720.538 48.2226 719.967C48.496 719.387 48.6327 718.761 48.6327 718.09C48.6327 717.344 48.4629 716.702 48.1231 716.163C47.7834 715.616 47.3194 715.198 46.7311 714.908C46.1428 714.61 45.4758 714.461 44.73 714.461C43.9511 714.461 43.2717 714.618 42.6917 714.933C42.1117 715.248 41.6642 715.699 41.3493 716.288C41.0345 716.876 40.877 717.576 40.877 718.388H35.7687C35.7687 716.723 36.1457 715.277 36.8998 714.05C37.6538 712.824 38.7103 711.875 40.0692 711.204C41.4281 710.533 42.9941 710.197 44.7673 710.197C46.5902 710.197 48.177 710.521 49.5276 711.167C50.8865 711.805 51.943 712.692 52.697 713.827C53.451 714.962 53.828 716.263 53.828 717.729C53.828 718.691 53.6375 719.639 53.2563 720.576C52.8834 721.512 52.2164 722.552 51.2552 723.695C50.2941 724.83 48.9393 726.194 47.191 727.784L43.4747 731.426V731.6H54.1636V736H36.0173ZM58.0632 736V732.122L67.1239 723.733C67.8945 722.987 68.5408 722.316 69.0629 721.719C69.5932 721.123 69.995 720.538 70.2685 719.967C70.5419 719.387 70.6786 718.761 70.6786 718.09C70.6786 717.344 70.5088 716.702 70.169 716.163C69.8293 715.616 69.3653 715.198 68.777 714.908C68.1887 714.61 67.5217 714.461 66.7759 714.461C65.997 714.461 65.3176 714.618 64.7376 714.933C64.1576 715.248 63.7101 715.699 63.3952 716.288C63.0804 716.876 62.9229 717.576 62.9229 718.388H57.8146C57.8146 716.723 58.1916 715.277 58.9457 714.05C59.6997 712.824 60.7562 711.875 62.1151 711.204C63.474 710.533 65.04 710.197 66.8132 710.197C68.6361 710.197 70.2229 710.521 71.5735 711.167C72.9324 711.805 73.9889 712.692 74.7429 713.827C75.4969 714.962 75.8739 716.263 75.8739 717.729C75.8739 718.691 75.6834 719.639 75.3022 720.576C74.9293 721.512 74.2623 722.552 73.3011 723.695C72.34 724.83 70.9852 726.194 69.2369 727.784L65.5206 731.426V731.6H76.2095V736H58.0632Z" fill="#5B5B5B"/>
<path d="M290.339 468.227V466.885C290.339 465.866 290.554 464.929 290.985 464.076C291.424 463.214 292.058 462.527 292.887 462.013C293.724 461.491 294.743 461.23 295.944 461.23C297.162 461.23 298.186 461.487 299.014 462C299.851 462.514 300.481 463.202 300.903 464.064C301.334 464.917 301.55 465.857 301.55 466.885V468.227C301.55 469.246 301.334 470.187 300.903 471.049C300.473 471.902 299.839 472.586 299.002 473.099C298.165 473.621 297.146 473.882 295.944 473.882C294.726 473.882 293.703 473.621 292.874 473.099C292.046 472.586 291.416 471.902 290.985 471.049C290.554 470.187 290.339 469.246 290.339 468.227ZM293.956 466.885V468.227C293.956 468.816 294.097 469.371 294.378 469.893C294.668 470.415 295.19 470.676 295.944 470.676C296.698 470.676 297.212 470.419 297.486 469.905C297.767 469.391 297.908 468.832 297.908 468.227V466.885C297.908 466.28 297.776 465.717 297.51 465.195C297.245 464.673 296.723 464.412 295.944 464.412C295.199 464.412 294.681 464.673 294.391 465.195C294.101 465.717 293.956 466.28 293.956 466.885ZM277.276 453.661V452.318C277.276 451.291 277.496 450.35 277.935 449.497C278.374 448.635 279.008 447.947 279.836 447.434C280.673 446.92 281.684 446.663 282.869 446.663C284.095 446.663 285.123 446.92 285.951 447.434C286.78 447.947 287.41 448.635 287.841 449.497C288.272 450.35 288.487 451.291 288.487 452.318V453.661C288.487 454.688 288.267 455.628 287.828 456.482C287.397 457.335 286.763 458.019 285.927 458.533C285.098 459.038 284.079 459.291 282.869 459.291C281.659 459.291 280.636 459.034 279.799 458.52C278.97 457.998 278.341 457.315 277.91 456.469C277.487 455.616 277.276 454.68 277.276 453.661ZM280.918 452.318V453.661C280.918 454.265 281.059 454.825 281.34 455.338C281.63 455.852 282.14 456.109 282.869 456.109C283.631 456.109 284.149 455.852 284.423 455.338C284.704 454.825 284.845 454.265 284.845 453.661V452.318C284.845 451.713 284.713 451.15 284.448 450.628C284.182 450.106 283.656 449.845 282.869 449.845C282.132 449.845 281.622 450.11 281.34 450.64C281.059 451.171 280.918 451.73 280.918 452.318ZM278.917 473L296.417 447.545H299.673L282.173 473H278.917ZM315.98 473.348C314.066 473.348 312.363 473.037 310.872 472.416C309.388 471.786 308.224 470.929 307.379 469.843C306.534 468.758 306.111 467.527 306.111 466.152C306.111 465.091 306.352 464.117 306.832 463.231C307.321 462.336 307.984 461.594 308.821 461.006C309.658 460.409 310.594 460.028 311.63 459.863V459.689C310.271 459.415 309.169 458.756 308.324 457.712C307.478 456.66 307.056 455.438 307.056 454.046C307.056 452.728 307.441 451.556 308.212 450.528C308.982 449.493 310.039 448.681 311.381 448.092C312.732 447.496 314.265 447.197 315.98 447.197C317.695 447.197 319.224 447.496 320.566 448.092C321.917 448.689 322.977 449.505 323.748 450.541C324.519 451.568 324.908 452.737 324.916 454.046C324.908 455.446 324.477 456.668 323.624 457.712C322.77 458.756 321.676 459.415 320.342 459.689V459.863C321.362 460.028 322.285 460.409 323.114 461.006C323.951 461.594 324.614 462.336 325.103 463.231C325.6 464.117 325.853 465.091 325.861 466.152C325.853 467.527 325.426 468.758 324.581 469.843C323.736 470.929 322.567 471.786 321.076 472.416C319.593 473.037 317.894 473.348 315.98 473.348ZM315.98 469.396C316.833 469.396 317.579 469.242 318.217 468.936C318.855 468.621 319.352 468.19 319.709 467.643C320.073 467.088 320.255 466.45 320.255 465.729C320.255 464.992 320.069 464.341 319.696 463.778C319.323 463.206 318.818 462.759 318.18 462.435C317.542 462.104 316.808 461.938 315.98 461.938C315.16 461.938 314.426 462.104 313.78 462.435C313.134 462.759 312.624 463.206 312.251 463.778C311.887 464.341 311.704 464.992 311.704 465.729C311.704 466.45 311.882 467.088 312.239 467.643C312.595 468.19 313.096 468.621 313.743 468.936C314.389 469.242 315.135 469.396 315.98 469.396ZM315.98 458.023C316.692 458.023 317.326 457.878 317.881 457.588C318.437 457.298 318.872 456.896 319.187 456.382C319.501 455.869 319.659 455.276 319.659 454.605C319.659 453.942 319.501 453.362 319.187 452.865C318.872 452.36 318.441 451.966 317.894 451.684C317.347 451.394 316.709 451.249 315.98 451.249C315.259 451.249 314.621 451.394 314.066 451.684C313.511 451.966 313.076 452.36 312.761 452.865C312.454 453.362 312.301 453.942 312.301 454.605C312.301 455.276 312.458 455.869 312.773 456.382C313.088 456.896 313.523 457.298 314.078 457.588C314.633 457.878 315.267 458.023 315.98 458.023ZM339.604 473.559C337.466 473.551 335.627 473.025 334.086 471.981C332.553 470.937 331.372 469.425 330.544 467.444C329.723 465.464 329.317 463.082 329.325 460.298C329.325 457.522 329.736 455.156 330.556 453.201C331.385 451.245 332.565 449.758 334.098 448.739C335.639 447.711 337.475 447.197 339.604 447.197C341.734 447.197 343.565 447.711 345.098 448.739C346.639 449.766 347.824 451.258 348.653 453.213C349.481 455.16 349.891 457.522 349.883 460.298C349.883 463.09 349.469 465.476 348.64 467.457C347.82 469.437 346.643 470.949 345.11 471.993C343.577 473.037 341.742 473.559 339.604 473.559ZM339.604 469.097C341.063 469.097 342.227 468.364 343.097 466.897C343.967 465.431 344.398 463.231 344.389 460.298C344.389 458.367 344.191 456.759 343.793 455.475C343.403 454.191 342.848 453.225 342.127 452.579C341.415 451.933 340.574 451.61 339.604 451.61C338.154 451.61 336.994 452.335 336.124 453.785C335.254 455.235 334.815 457.406 334.807 460.298C334.807 462.253 335.001 463.885 335.391 465.195C335.789 466.496 336.348 467.473 337.069 468.128C337.79 468.774 338.635 469.097 339.604 469.097Z" fill="#5B5B5B"/>
<path d="M147.629 501.227V499.885C147.629 498.866 147.845 497.929 148.276 497.076C148.715 496.214 149.349 495.527 150.177 495.013C151.014 494.491 152.033 494.23 153.235 494.23C154.453 494.23 155.476 494.487 156.305 495C157.142 495.514 157.771 496.202 158.194 497.064C158.625 497.917 158.84 498.857 158.84 499.885V501.227C158.84 502.246 158.625 503.187 158.194 504.049C157.763 504.902 157.129 505.586 156.292 506.099C155.456 506.621 154.436 506.882 153.235 506.882C152.017 506.882 150.994 506.621 150.165 506.099C149.336 505.586 148.707 504.902 148.276 504.049C147.845 503.187 147.629 502.246 147.629 501.227ZM151.246 499.885V501.227C151.246 501.816 151.387 502.371 151.669 502.893C151.959 503.415 152.481 503.676 153.235 503.676C153.989 503.676 154.503 503.419 154.776 502.905C155.058 502.391 155.199 501.832 155.199 501.227V499.885C155.199 499.28 155.066 498.717 154.801 498.195C154.536 497.673 154.014 497.412 153.235 497.412C152.489 497.412 151.971 497.673 151.681 498.195C151.391 498.717 151.246 499.28 151.246 499.885ZM134.567 486.661V485.318C134.567 484.291 134.786 483.35 135.225 482.497C135.664 481.635 136.298 480.947 137.127 480.434C137.964 479.92 138.975 479.663 140.16 479.663C141.386 479.663 142.413 479.92 143.242 480.434C144.071 480.947 144.7 481.635 145.131 482.497C145.562 483.35 145.777 484.291 145.777 485.318V486.661C145.777 487.688 145.558 488.628 145.119 489.482C144.688 490.335 144.054 491.019 143.217 491.533C142.389 492.038 141.369 492.291 140.16 492.291C138.95 492.291 137.927 492.034 137.09 491.52C136.261 490.998 135.631 490.315 135.2 489.469C134.778 488.616 134.567 487.68 134.567 486.661ZM138.208 485.318V486.661C138.208 487.265 138.349 487.825 138.631 488.338C138.921 488.852 139.43 489.109 140.16 489.109C140.922 489.109 141.44 488.852 141.713 488.338C141.995 487.825 142.136 487.265 142.136 486.661V485.318C142.136 484.713 142.003 484.15 141.738 483.628C141.473 483.106 140.947 482.845 140.16 482.845C139.422 482.845 138.913 483.11 138.631 483.64C138.349 484.171 138.208 484.73 138.208 485.318ZM136.207 506L153.707 480.545H156.964L139.464 506H136.207ZM173.072 506.348C171.315 506.348 169.749 506.025 168.373 505.379C167.006 504.732 165.921 503.842 165.117 502.706C164.313 501.571 163.895 500.27 163.862 498.804H169.082C169.14 499.79 169.554 500.589 170.325 501.202C171.095 501.816 172.011 502.122 173.072 502.122C173.917 502.122 174.662 501.936 175.309 501.563C175.963 501.182 176.473 500.656 176.837 499.984C177.21 499.305 177.397 498.526 177.397 497.648C177.397 496.753 177.206 495.966 176.825 495.286C176.452 494.607 175.934 494.076 175.271 493.695C174.609 493.314 173.85 493.119 172.997 493.111C172.251 493.111 171.526 493.264 170.822 493.571C170.126 493.878 169.583 494.296 169.194 494.826L164.409 493.969L165.614 480.545H181.175V484.945H170.051L169.393 491.321H169.542C169.989 490.692 170.664 490.17 171.568 489.755C172.471 489.341 173.482 489.134 174.6 489.134C176.133 489.134 177.5 489.494 178.702 490.215C179.903 490.936 180.852 491.926 181.548 493.186C182.244 494.437 182.588 495.879 182.58 497.511C182.588 499.226 182.19 500.751 181.386 502.085C180.591 503.411 179.477 504.455 178.043 505.217C176.618 505.971 174.961 506.348 173.072 506.348ZM196.314 506.559C194.176 506.551 192.336 506.025 190.795 504.981C189.262 503.937 188.082 502.425 187.253 500.444C186.433 498.464 186.027 496.082 186.035 493.298C186.035 490.522 186.445 488.156 187.265 486.201C188.094 484.245 189.275 482.758 190.808 481.739C192.349 480.711 194.184 480.197 196.314 480.197C198.443 480.197 200.274 480.711 201.807 481.739C203.349 482.766 204.533 484.258 205.362 486.213C206.191 488.16 206.601 490.522 206.592 493.298C206.592 496.09 206.178 498.476 205.35 500.457C204.529 502.437 203.353 503.949 201.82 504.993C200.287 506.037 198.451 506.559 196.314 506.559ZM196.314 502.097C197.772 502.097 198.936 501.364 199.806 499.897C200.676 498.431 201.107 496.231 201.099 493.298C201.099 491.367 200.9 489.759 200.502 488.475C200.113 487.191 199.558 486.225 198.837 485.579C198.124 484.933 197.283 484.61 196.314 484.61C194.864 484.61 193.704 485.335 192.834 486.785C191.964 488.235 191.524 490.406 191.516 493.298C191.516 495.253 191.711 496.885 192.1 498.195C192.498 499.496 193.057 500.473 193.778 501.128C194.499 501.774 195.344 502.097 196.314 502.097Z" fill="#5B5B5B"/>
</svg>
