<svg width="320" height="194" viewBox="0 0 320 194" fill="none" xmlns="http://www.w3.org/2000/svg">
<g clip-path="url(#clip0_10_41)">
<path d="M314.49 31.0175C311.983 30.717 309.479 31.5403 308.523 32.9768L283.567 70.4712L261.903 56.459C260.607 55.6201 258.67 55.2628 256.823 55.5208C254.975 55.7792 253.492 56.6139 252.932 57.7124L222.712 116.931L210.559 107.76C209.599 107.035 208.171 106.597 206.64 106.557C205.109 106.515 203.624 106.877 202.563 107.547L186.97 117.407L163.218 67.3555C162.577 66.0043 160.567 65.0601 158.248 65.0214C155.952 64.987 153.837 65.8577 153.073 67.1854L126.265 113.791L110.518 107.225C109.316 106.724 107.828 106.545 106.399 106.727C104.972 106.91 103.731 107.44 102.966 108.193L77.5751 133.198L40.2104 128.288C37.486 127.93 34.7698 128.905 33.9773 130.525L6.61119 186.444C6.13306 187.421 6.44369 188.477 7.44868 189.293C8.4543 190.109 10.0362 190.591 11.7155 190.591H312.067C314.996 190.591 317.376 189.156 317.392 187.38L318.785 34.2029C318.799 32.6536 316.996 31.3168 314.49 31.0175Z" fill="url(#paint0_linear_10_41)" fill-opacity="0.2"/>
<path d="M314.49 31.0175C311.983 30.717 309.479 31.5403 308.523 32.9768L292.898 56.4522L291.446 190.59H312.068C314.997 190.59 317.376 189.156 317.393 187.38L318.786 34.2025C318.799 32.6536 316.996 31.3168 314.49 31.0175Z" fill="url(#paint1_linear_10_41)" fill-opacity="0.2"/>
<path d="M319.872 6.69334C319.854 4.92651 317.496 3.49652 314.581 3.48516L294.626 3.409C294.615 3.409 294.604 3.409 294.592 3.409C291.667 3.409 289.286 4.84088 289.268 6.61718C289.249 8.39992 291.618 9.85453 294.559 9.86552L301.688 9.8928L271.796 39.0764L250.962 27.8942C249.62 27.1746 247.772 26.9117 246.045 27.1947C244.316 27.4774 242.937 28.2681 242.375 29.2991L216.705 76.4132L212.821 72.8621C211.897 72.0172 210.372 71.4844 208.702 71.4238C207.031 71.3609 205.414 71.7811 204.329 72.5525L196.102 78.4077L161.568 19.7561C160.825 18.4939 158.873 17.6414 156.662 17.6137C154.443 17.588 152.443 18.3893 151.615 19.6322L110.467 81.3856L97.1656 77.3536C94.6525 76.5913 91.5981 77.1445 90.1838 78.6154L63.6552 106.21L24.7148 102.027C22.0173 101.738 19.4029 102.734 18.6604 104.33L0.201164 144.029C-0.596956 145.745 1.05116 147.529 3.88177 148.012C4.36552 148.095 4.85114 148.134 5.32926 148.134C7.65362 148.134 9.78986 147.203 10.4517 145.781L27.6035 108.894L65.4564 112.959C67.6539 113.196 69.862 112.575 70.9858 111.406L96.8706 84.4816L110.864 88.723C112.194 89.1258 113.739 89.1732 115.129 88.8553C116.518 88.5362 117.625 87.8803 118.182 87.0449L156.247 29.9213L189.169 85.8354C189.808 86.921 191.354 87.7178 193.224 87.9251C195.093 88.1327 197.005 87.7205 198.238 86.8433L207.853 80.0007L213.886 85.5171C215.012 86.547 217.01 87.0956 219.031 86.9327C221.052 86.7686 222.741 85.9195 223.38 84.7457L249.955 35.9747L269.464 46.4453C270.638 47.0758 272.213 47.3603 273.765 47.222C275.317 47.0841 276.69 46.5389 277.518 45.7311L309.308 14.6935L309.351 18.8308C309.37 20.6067 311.751 22.0386 314.676 22.0386C314.687 22.0386 314.699 22.0386 314.71 22.0386C317.651 22.0272 320.019 20.573 320.001 18.7902L319.872 6.69334Z" fill="#FECD3D" fill-opacity="0.39"/>
</g>
<defs>
<linearGradient id="paint0_linear_10_41" x1="162.588" y1="30.9559" x2="162.588" y2="190.591" gradientUnits="userSpaceOnUse">
<stop stop-color="#6B6B6B"/>
<stop offset="1" stop-color="#6B6B6B" stop-opacity="0"/>
</linearGradient>
<linearGradient id="paint1_linear_10_41" x1="305.116" y1="30.9559" x2="305.116" y2="190.59" gradientUnits="userSpaceOnUse">
<stop stop-color="#858585"/>
<stop offset="1" stop-color="#858585" stop-opacity="0"/>
</linearGradient>
<clipPath id="clip0_10_41">
<rect width="320" height="194" fill="white"/>
</clipPath>
</defs>
</svg>
