<svg width="277" height="277" viewBox="0 0 277 277" fill="none" xmlns="http://www.w3.org/2000/svg">
<g opacity="0.8">
<path d="M20.775 138.5C9.30128 138.5 -0.159407 129.148 1.55523 117.803C3.2279 106.735 6.23984 95.8863 10.5427 85.4982C17.503 68.6946 27.7049 53.4264 40.5659 40.5655C53.4269 27.7046 68.6951 17.5028 85.4987 10.5425C102.302 3.58229 120.312 -6.74299e-05 138.501 9.51832e-10C156.689 6.74318e-05 174.699 3.58256 191.502 10.5429C208.306 17.5033 223.574 27.7052 236.435 40.5662C249.296 53.4273 259.497 68.6955 266.458 85.4992C270.76 95.8873 273.772 106.736 275.445 117.804C277.159 129.149 267.699 138.501 256.225 138.501C244.751 138.501 235.673 129.096 233.233 117.884C232.009 112.26 230.284 106.743 228.07 101.399C223.198 89.6368 216.057 78.9491 207.054 69.9464C198.052 60.9437 187.364 53.8023 175.602 48.9301C163.839 44.0578 151.232 41.55 138.5 41.55C125.769 41.55 113.162 44.0576 101.399 48.9298C89.6365 53.8019 78.9488 60.9432 69.9461 69.9459C60.9435 78.9485 53.8021 89.6362 48.9299 101.399C46.7167 106.742 44.9914 112.259 43.7674 117.883C41.3275 129.095 32.2487 138.5 20.775 138.5Z" fill="url(#paint0_linear_11_75)"/>
<path d="M20.775 138.5C9.30128 138.5 -0.159439 129.147 1.55522 117.803C3.87805 102.434 8.77911 87.5156 16.0985 73.6917C26.6701 53.7253 41.9657 36.6482 60.6515 23.9493C79.3372 11.2505 100.846 3.31557 123.302 0.836405C138.849 -0.880055 154.524 0.0548262 169.669 3.55273C180.848 6.13481 186.061 18.3741 181.837 29.0421C177.614 39.7101 165.527 44.689 154.205 42.8304C145.528 41.4061 136.665 41.1635 127.861 42.1355C112.142 43.8709 97.0861 49.4254 84.006 58.3145C70.926 67.2037 60.2191 79.1577 52.8189 93.1342C48.6742 100.962 45.6373 109.291 43.7674 117.883C41.3275 129.095 32.2487 138.5 20.775 138.5Z" fill="url(#paint1_linear_11_75)"/>
</g>
<defs>
<linearGradient id="paint0_linear_11_75" x1="138.5" y1="0" x2="138.5" y2="277" gradientUnits="userSpaceOnUse">
<stop stop-color="#D9D9D9"/>
<stop offset="0.40625" stop-color="#D9D9D9" stop-opacity="0"/>
</linearGradient>
<linearGradient id="paint1_linear_11_75" x1="138.5" y1="3.7998e-06" x2="11" y2="208" gradientUnits="userSpaceOnUse">
<stop stop-color="white"/>
<stop offset="0.697917" stop-color="white" stop-opacity="0"/>
</linearGradient>
</defs>
</svg>
